{
	"asset":{
		"generator":"Khronos glTF Blender I/O v4.1.63",
		"version":"2.0"
	},
	"scene":0,
	"scenes":[
		{
			"name":"Scene",
			"nodes":[
				0,
				1,
				2,
				3,
				4,
				5,
				6,
				7
			]
		}
	],
	"nodes":[
		{
			"mesh":0,
			"name":"Bar_for_firearm_sight",
			"rotation":[
				0.7071068286895752,
				0,
				0,
				0.7071068286895752
			]
		},
		{
			"mesh":1,
			"name":"Bar_for_front_sight",
			"rotation":[
				0.7071068286895752,
				0,
				0,
				0.7071068286895752
			]
		},
		{
			"mesh":2,
			"name":"Buttstock",
			"rotation":[
				0.7071068286895752,
				0,
				0,
				0.7071068286895752
			]
		},
		{
			"mesh":3,
			"name":"Firearm_sight",
			"rotation":[
				0.7071068286895752,
				0,
				0,
				0.7071068286895752
			]
		},
		{
			"mesh":4,
			"name":"Folding_handle",
			"rotation":[
				0.7071068286895752,
				0,
				0,
				0.7071068286895752
			]
		},
		{
			"mesh":5,
			"name":"Front_sight",
			"rotation":[
				0.7071068286895752,
				0,
				0,
				0.7071068286895752
			]
		},
		{
			"mesh":6,
			"name":"Magazine",
			"rotation":[
				0.7071068286895752,
				0,
				0,
				0.7071068286895752
			],
			"translation":[
				0,
				0.0009144715149886906,
				0
			]
		},
		{
			"mesh":7,
			"name":"Weapon_casing",
			"rotation":[
				0.7071068286895752,
				0,
				0,
				0.7071068286895752
			]
		}
	],
	"materials":[
		{
			"doubleSided":true,
			"name":"Mp7M",
			"pbrMetallicRoughness":{}
		}
	],
	"meshes":[
		{
			"name":"Bar_for_firearm_sight",
			"primitives":[
				{
					"attributes":{
						"POSITION":0,
						"NORMAL":1,
						"TEXCOORD_0":2
					},
					"indices":3,
					"material":0
				}
			]
		},
		{
			"name":"Bar_for_front_sight",
			"primitives":[
				{
					"attributes":{
						"POSITION":4,
						"NORMAL":5,
						"TEXCOORD_0":6
					},
					"indices":7,
					"material":0
				}
			]
		},
		{
			"name":"Buttstock",
			"primitives":[
				{
					"attributes":{
						"POSITION":8,
						"NORMAL":9,
						"TEXCOORD_0":10
					},
					"indices":11,
					"material":0
				}
			]
		},
		{
			"name":"Firearm_sight",
			"primitives":[
				{
					"attributes":{
						"POSITION":12,
						"NORMAL":13,
						"TEXCOORD_0":14
					},
					"indices":15,
					"material":0
				}
			]
		},
		{
			"name":"Folding_handle",
			"primitives":[
				{
					"attributes":{
						"POSITION":16,
						"NORMAL":17,
						"TEXCOORD_0":18
					},
					"indices":19,
					"material":0
				}
			]
		},
		{
			"name":"Front_sight",
			"primitives":[
				{
					"attributes":{
						"POSITION":20,
						"NORMAL":21,
						"TEXCOORD_0":22
					},
					"indices":23,
					"material":0
				}
			]
		},
		{
			"name":"Magazine",
			"primitives":[
				{
					"attributes":{
						"POSITION":24,
						"NORMAL":25,
						"TEXCOORD_0":26
					},
					"indices":27,
					"material":0
				}
			]
		},
		{
			"name":"Weapon_casing",
			"primitives":[
				{
					"attributes":{
						"POSITION":28,
						"NORMAL":29,
						"TEXCOORD_0":30
					},
					"indices":31,
					"material":0
				}
			]
		}
	],
	"accessors":[
		{
			"bufferView":0,
			"componentType":5126,
			"count":1831,
			"max":[
				0.015362000092864037,
				0.06684599816799164,
				-0.2478030025959015
			],
			"min":[
				-0.014352000318467617,
				0.02418000064790249,
				-0.2643600106239319
			],
			"type":"VEC3"
		},
		{
			"bufferView":1,
			"componentType":5126,
			"count":1831,
			"type":"VEC3"
		},
		{
			"bufferView":2,
			"componentType":5126,
			"count":1831,
			"type":"VEC2"
		},
		{
			"bufferView":3,
			"componentType":5123,
			"count":6912,
			"type":"SCALAR"
		},
		{
			"bufferView":4,
			"componentType":5126,
			"count":1536,
			"max":[
				0.012570999562740326,
				-0.16339699923992157,
				-0.2478030025959015
			],
			"min":[
				-0.014352000318467617,
				-0.20606200397014618,
				-0.2626749873161316
			],
			"type":"VEC3"
		},
		{
			"bufferView":5,
			"componentType":5126,
			"count":1536,
			"type":"VEC3"
		},
		{
			"bufferView":6,
			"componentType":5126,
			"count":1536,
			"type":"VEC2"
		},
		{
			"bufferView":7,
			"componentType":5123,
			"count":5580,
			"type":"SCALAR"
		},
		{
			"bufferView":8,
			"componentType":5126,
			"count":2928,
			"max":[
				0.030851999297738075,
				0.3158619999885559,
				-0.1304350048303604
			],
			"min":[
				-0.0311489999294281,
				0.08887699991464615,
				-0.23348799347877502
			],
			"type":"VEC3"
		},
		{
			"bufferView":9,
			"componentType":5126,
			"count":2928,
			"type":"VEC3"
		},
		{
			"bufferView":10,
			"componentType":5126,
			"count":2928,
			"type":"VEC2"
		},
		{
			"bufferView":11,
			"componentType":5123,
			"count":8718,
			"type":"SCALAR"
		},
		{
			"bufferView":12,
			"componentType":5126,
			"count":513,
			"max":[
				0.0064050001092255116,
				0.039051998406648636,
				-0.2549220025539398
			],
			"min":[
				-0.006635999772697687,
				0.02688400074839592,
				-0.2956770062446594
			],
			"type":"VEC3"
		},
		{
			"bufferView":13,
			"componentType":5126,
			"count":513,
			"type":"VEC3"
		},
		{
			"bufferView":14,
			"componentType":5126,
			"count":513,
			"type":"VEC2"
		},
		{
			"bufferView":15,
			"componentType":5123,
			"count":1524,
			"type":"SCALAR"
		},
		{
			"bufferView":16,
			"componentType":5126,
			"count":1586,
			"max":[
				0.012915999628603458,
				-0.18735399842262268,
				-0.078684002161026
			],
			"min":[
				-0.013213000260293484,
				-0.2191700041294098,
				-0.1870640069246292
			],
			"type":"VEC3"
		},
		{
			"bufferView":17,
			"componentType":5126,
			"count":1586,
			"type":"VEC3"
		},
		{
			"bufferView":18,
			"componentType":5126,
			"count":1586,
			"type":"VEC2"
		},
		{
			"bufferView":19,
			"componentType":5123,
			"count":4470,
			"type":"SCALAR"
		},
		{
			"bufferView":20,
			"componentType":5126,
			"count":1429,
			"max":[
				0.009209999814629555,
				-0.18838100135326385,
				-0.2566789984703064
			],
			"min":[
				-0.009494000114500523,
				-0.202347993850708,
				-0.2949410080909729
			],
			"type":"VEC3"
		},
		{
			"bufferView":21,
			"componentType":5126,
			"count":1429,
			"type":"VEC3"
		},
		{
			"bufferView":22,
			"componentType":5126,
			"count":1429,
			"type":"VEC2"
		},
		{
			"bufferView":23,
			"componentType":5123,
			"count":4020,
			"type":"SCALAR"
		},
		{
			"bufferView":24,
			"componentType":5126,
			"count":2007,
			"max":[
				0.015444000251591206,
				-0.006515000015497208,
				-0.0015940000303089619
			],
			"min":[
				-0.015740999951958656,
				-0.0834989994764328,
				-0.1777310073375702
			],
			"type":"VEC3"
		},
		{
			"bufferView":25,
			"componentType":5126,
			"count":2007,
			"type":"VEC3"
		},
		{
			"bufferView":26,
			"componentType":5126,
			"count":2007,
			"type":"VEC2"
		},
		{
			"bufferView":27,
			"componentType":5123,
			"count":7836,
			"type":"SCALAR"
		},
		{
			"bufferView":28,
			"componentType":5126,
			"count":19084,
			"max":[
				0.026765000075101852,
				0.09582400321960449,
				-0.09273000061511993
			],
			"min":[
				-0.026058999821543694,
				-0.29437100887298584,
				-0.25374600291252136
			],
			"type":"VEC3"
		},
		{
			"bufferView":29,
			"componentType":5126,
			"count":19084,
			"type":"VEC3"
		},
		{
			"bufferView":30,
			"componentType":5126,
			"count":19084,
			"type":"VEC2"
		},
		{
			"bufferView":31,
			"componentType":5123,
			"count":70752,
			"type":"SCALAR"
		}
	],
	"bufferViews":[
		{
			"buffer":0,
			"byteLength":21972,
			"byteOffset":0,
			"target":34962
		},
		{
			"buffer":0,
			"byteLength":21972,
			"byteOffset":21972,
			"target":34962
		},
		{
			"buffer":0,
			"byteLength":14648,
			"byteOffset":43944,
			"target":34962
		},
		{
			"buffer":0,
			"byteLength":13824,
			"byteOffset":58592,
			"target":34963
		},
		{
			"buffer":0,
			"byteLength":18432,
			"byteOffset":72416,
			"target":34962
		},
		{
			"buffer":0,
			"byteLength":18432,
			"byteOffset":90848,
			"target":34962
		},
		{
			"buffer":0,
			"byteLength":12288,
			"byteOffset":109280,
			"target":34962
		},
		{
			"buffer":0,
			"byteLength":11160,
			"byteOffset":121568,
			"target":34963
		},
		{
			"buffer":0,
			"byteLength":35136,
			"byteOffset":132728,
			"target":34962
		},
		{
			"buffer":0,
			"byteLength":35136,
			"byteOffset":167864,
			"target":34962
		},
		{
			"buffer":0,
			"byteLength":23424,
			"byteOffset":203000,
			"target":34962
		},
		{
			"buffer":0,
			"byteLength":17436,
			"byteOffset":226424,
			"target":34963
		},
		{
			"buffer":0,
			"byteLength":6156,
			"byteOffset":243860,
			"target":34962
		},
		{
			"buffer":0,
			"byteLength":6156,
			"byteOffset":250016,
			"target":34962
		},
		{
			"buffer":0,
			"byteLength":4104,
			"byteOffset":256172,
			"target":34962
		},
		{
			"buffer":0,
			"byteLength":3048,
			"byteOffset":260276,
			"target":34963
		},
		{
			"buffer":0,
			"byteLength":19032,
			"byteOffset":263324,
			"target":34962
		},
		{
			"buffer":0,
			"byteLength":19032,
			"byteOffset":282356,
			"target":34962
		},
		{
			"buffer":0,
			"byteLength":12688,
			"byteOffset":301388,
			"target":34962
		},
		{
			"buffer":0,
			"byteLength":8940,
			"byteOffset":314076,
			"target":34963
		},
		{
			"buffer":0,
			"byteLength":17148,
			"byteOffset":323016,
			"target":34962
		},
		{
			"buffer":0,
			"byteLength":17148,
			"byteOffset":340164,
			"target":34962
		},
		{
			"buffer":0,
			"byteLength":11432,
			"byteOffset":357312,
			"target":34962
		},
		{
			"buffer":0,
			"byteLength":8040,
			"byteOffset":368744,
			"target":34963
		},
		{
			"buffer":0,
			"byteLength":24084,
			"byteOffset":376784,
			"target":34962
		},
		{
			"buffer":0,
			"byteLength":24084,
			"byteOffset":400868,
			"target":34962
		},
		{
			"buffer":0,
			"byteLength":16056,
			"byteOffset":424952,
			"target":34962
		},
		{
			"buffer":0,
			"byteLength":15672,
			"byteOffset":441008,
			"target":34963
		},
		{
			"buffer":0,
			"byteLength":229008,
			"byteOffset":456680,
			"target":34962
		},
		{
			"buffer":0,
			"byteLength":229008,
			"byteOffset":685688,
			"target":34962
		},
		{
			"buffer":0,
			"byteLength":152672,
			"byteOffset":914696,
			"target":34962
		},
		{
			"buffer":0,
			"byteLength":141504,
			"byteOffset":1067368,
			"target":34963
		}
	],
	"buffers":[
		{
			"byteLength":1208872,
			"uri":"Gun5.bin"
		}
	]
}
